G04 MADE WITH FRITZING*
G04 WWW.FRITZING.ORG*
G04 DOUBLE SIDED*
G04 HOLES PLATED*
G04 CONTOUR ON CENTER OF CONTOUR VECTOR*
%ASAXBY*%
%FSLAX23Y23*%
%MOIN*%
%OFA0B0*%
%SFA1.0B1.0*%
%ADD10C,0.083749*%
%ADD11C,0.088740*%
%ADD12C,0.084000*%
%ADD13C,0.085361*%
%ADD14C,0.073000*%
%ADD15C,0.096000*%
%ADD16C,0.080000*%
%ADD17C,0.148425*%
%ADD18C,0.086000*%
%ADD19R,0.001000X0.001000*%
%LNMASK1*%
G90*
G70*
G54D10*
X1794Y1426D03*
X1894Y1426D03*
X2094Y1426D03*
G54D11*
X304Y456D03*
X544Y1856D03*
X444Y1586D03*
X744Y1406D03*
X1144Y1406D03*
X254Y1946D03*
X1464Y1946D03*
X1544Y1836D03*
X1644Y1736D03*
G54D12*
X2934Y206D03*
X3034Y196D03*
X3134Y206D03*
X3234Y196D03*
X2934Y206D03*
X3034Y196D03*
X3134Y206D03*
X3234Y196D03*
G54D11*
X2934Y856D03*
X2934Y476D03*
G54D13*
X344Y2056D03*
X444Y2056D03*
X544Y2056D03*
X644Y2056D03*
X744Y2056D03*
X844Y2056D03*
X944Y2056D03*
X1044Y2056D03*
X1144Y2056D03*
X1244Y2056D03*
X1344Y2056D03*
X1444Y2056D03*
X1544Y2056D03*
X1644Y2056D03*
X1744Y2056D03*
X1844Y2056D03*
X1944Y2056D03*
X2044Y2056D03*
X2144Y2056D03*
X2244Y2056D03*
X2244Y2156D03*
X2144Y2156D03*
X2044Y2156D03*
X1944Y2156D03*
X1844Y2156D03*
X1744Y2156D03*
X1644Y2156D03*
X1544Y2156D03*
X1444Y2156D03*
X1344Y2156D03*
X1244Y2156D03*
X1144Y2156D03*
X1044Y2156D03*
X944Y2156D03*
X844Y2156D03*
X744Y2156D03*
X644Y2156D03*
X544Y2156D03*
X444Y2156D03*
X344Y2156D03*
G54D14*
X904Y936D03*
X764Y936D03*
G54D15*
X1524Y951D03*
X1661Y951D03*
G54D16*
X1444Y356D03*
G54D17*
X494Y976D03*
G54D16*
X1444Y256D03*
X1444Y156D03*
X1344Y356D03*
X1344Y256D03*
X1344Y156D03*
X1244Y356D03*
X1244Y256D03*
X1244Y156D03*
X1144Y356D03*
X1144Y256D03*
X1144Y156D03*
X944Y356D03*
X944Y256D03*
X944Y156D03*
X844Y356D03*
X844Y256D03*
X844Y156D03*
X744Y356D03*
X744Y256D03*
X744Y156D03*
X644Y356D03*
X644Y256D03*
X644Y156D03*
X444Y356D03*
X444Y456D03*
X444Y556D03*
G54D17*
X2694Y976D03*
G54D16*
X444Y656D03*
X444Y756D03*
X444Y856D03*
X2744Y356D03*
X2744Y456D03*
X2744Y556D03*
X2744Y656D03*
X2744Y756D03*
X2744Y856D03*
X2544Y356D03*
X2544Y256D03*
X2544Y156D03*
X2444Y356D03*
X2444Y256D03*
X2444Y156D03*
X2344Y356D03*
X2344Y256D03*
X2344Y156D03*
X2244Y356D03*
X2244Y256D03*
X2244Y156D03*
X2044Y356D03*
X2044Y256D03*
X2044Y156D03*
X1944Y356D03*
X1944Y256D03*
X1944Y156D03*
X1844Y356D03*
X1844Y256D03*
X1844Y156D03*
X1744Y356D03*
X1744Y256D03*
X1744Y156D03*
G54D17*
X494Y226D03*
X2694Y226D03*
G54D18*
X844Y1756D03*
X944Y1756D03*
X1044Y1756D03*
X1144Y1756D03*
X1244Y1756D03*
X1344Y1756D03*
G54D17*
X1319Y1226D03*
X869Y1226D03*
G54D19*
X2893Y248D02*
X2975Y248D01*
X2892Y247D02*
X2975Y247D01*
X2892Y246D02*
X2975Y246D01*
X2892Y245D02*
X2975Y245D01*
X2892Y244D02*
X2975Y244D01*
X2892Y243D02*
X2975Y243D01*
X2892Y242D02*
X2975Y242D01*
X2892Y241D02*
X2975Y241D01*
X2892Y240D02*
X2975Y240D01*
X2892Y239D02*
X2975Y239D01*
X2892Y238D02*
X2975Y238D01*
X2892Y237D02*
X2975Y237D01*
X2892Y236D02*
X2975Y236D01*
X2892Y235D02*
X2975Y235D01*
X2892Y234D02*
X2975Y234D01*
X2892Y233D02*
X2975Y233D01*
X2892Y232D02*
X2975Y232D01*
X2892Y231D02*
X2975Y231D01*
X2892Y230D02*
X2975Y230D01*
X2892Y229D02*
X2975Y229D01*
X2892Y228D02*
X2975Y228D01*
X2892Y227D02*
X2975Y227D01*
X2892Y226D02*
X2975Y226D01*
X2892Y225D02*
X2975Y225D01*
X2892Y224D02*
X2975Y224D01*
X2892Y223D02*
X2975Y223D01*
X2892Y222D02*
X2975Y222D01*
X2892Y221D02*
X2975Y221D01*
X2892Y220D02*
X2928Y220D01*
X2940Y220D02*
X2975Y220D01*
X2892Y219D02*
X2926Y219D01*
X2942Y219D02*
X2975Y219D01*
X2892Y218D02*
X2924Y218D01*
X2943Y218D02*
X2975Y218D01*
X2892Y217D02*
X2923Y217D01*
X2944Y217D02*
X2975Y217D01*
X2892Y216D02*
X2922Y216D01*
X2945Y216D02*
X2975Y216D01*
X2892Y215D02*
X2921Y215D01*
X2946Y215D02*
X2975Y215D01*
X2892Y214D02*
X2920Y214D01*
X2947Y214D02*
X2975Y214D01*
X2892Y213D02*
X2920Y213D01*
X2947Y213D02*
X2975Y213D01*
X2892Y212D02*
X2919Y212D01*
X2948Y212D02*
X2975Y212D01*
X2892Y211D02*
X2919Y211D01*
X2948Y211D02*
X2975Y211D01*
X2892Y210D02*
X2919Y210D01*
X2949Y210D02*
X2975Y210D01*
X2892Y209D02*
X2918Y209D01*
X2949Y209D02*
X2975Y209D01*
X2892Y208D02*
X2918Y208D01*
X2949Y208D02*
X2975Y208D01*
X2892Y207D02*
X2918Y207D01*
X2949Y207D02*
X2975Y207D01*
X2892Y206D02*
X2918Y206D01*
X2949Y206D02*
X2975Y206D01*
X2892Y205D02*
X2918Y205D01*
X2949Y205D02*
X2975Y205D01*
X2892Y204D02*
X2918Y204D01*
X2949Y204D02*
X2975Y204D01*
X2892Y203D02*
X2918Y203D01*
X2949Y203D02*
X2975Y203D01*
X2892Y202D02*
X2919Y202D01*
X2949Y202D02*
X2975Y202D01*
X2892Y201D02*
X2919Y201D01*
X2948Y201D02*
X2975Y201D01*
X2892Y200D02*
X2919Y200D01*
X2948Y200D02*
X2975Y200D01*
X2892Y199D02*
X2920Y199D01*
X2947Y199D02*
X2975Y199D01*
X2892Y198D02*
X2920Y198D01*
X2947Y198D02*
X2975Y198D01*
X2892Y197D02*
X2921Y197D01*
X2946Y197D02*
X2975Y197D01*
X2892Y196D02*
X2922Y196D01*
X2945Y196D02*
X2975Y196D01*
X2892Y195D02*
X2923Y195D01*
X2944Y195D02*
X2975Y195D01*
X2892Y194D02*
X2924Y194D01*
X2943Y194D02*
X2975Y194D01*
X2892Y193D02*
X2926Y193D01*
X2942Y193D02*
X2975Y193D01*
X2892Y192D02*
X2928Y192D01*
X2940Y192D02*
X2975Y192D01*
X2892Y191D02*
X2975Y191D01*
X2892Y190D02*
X2975Y190D01*
X2892Y189D02*
X2975Y189D01*
X2892Y188D02*
X2975Y188D01*
X2892Y187D02*
X2975Y187D01*
X2892Y186D02*
X2975Y186D01*
X2892Y185D02*
X2975Y185D01*
X2892Y184D02*
X2975Y184D01*
X2892Y183D02*
X2975Y183D01*
X2892Y182D02*
X2975Y182D01*
X2892Y181D02*
X2975Y181D01*
X2892Y180D02*
X2975Y180D01*
X2892Y179D02*
X2975Y179D01*
X2892Y178D02*
X2975Y178D01*
X2892Y177D02*
X2975Y177D01*
X2892Y176D02*
X2975Y176D01*
X2892Y175D02*
X2975Y175D01*
X2892Y174D02*
X2975Y174D01*
X2892Y173D02*
X2975Y173D01*
X2892Y172D02*
X2975Y172D01*
X2892Y171D02*
X2975Y171D01*
X2892Y170D02*
X2975Y170D01*
X2892Y169D02*
X2975Y169D01*
X2892Y168D02*
X2975Y168D01*
X2892Y167D02*
X2975Y167D01*
X2892Y166D02*
X2975Y166D01*
X2892Y165D02*
X2975Y165D01*
D02*
G04 End of Mask1*
M02*