; NON-PLATED HOLES START AT T1
; THROUGH (PLATED) HOLES START AT T100
M48
INCH
T100C0.039370
T101C0.040639
T102C0.040000
T103C0.098425
T104C0.042251
T105C0.032000
%
T100
X009444Y002555
X010444Y017555
X019444Y003555
X002544Y019455
X007444Y002555
X025444Y001555
X022444Y002555
X012444Y003555
X020444Y003555
X024444Y002555
X023444Y002555
X023444Y003555
X013444Y002555
X013444Y001555
X018444Y003555
X019444Y002555
X016444Y017355
X007444Y003555
X008444Y002555
X020444Y002555
X006444Y002555
X004444Y015855
X017444Y001555
X008444Y017555
X011444Y001555
X014444Y001555
X012444Y002555
X007444Y001555
X017444Y002555
X012444Y001555
X008444Y001555
X011444Y002555
X024444Y003555
X014444Y002555
X015235Y009505
X009444Y017555
X009444Y003555
X023444Y001555
X011444Y003555
X018444Y001555
X019444Y001555
X020444Y001555
X014444Y003555
X013444Y003555
X012444Y017555
X007444Y014055
X029344Y008555
X005444Y018555
X011444Y014055
X006444Y003555
X022444Y001555
X025444Y002555
X029344Y004755
X024444Y001555
X009444Y001555
X014644Y019455
X022444Y003555
X006444Y001555
X013444Y017555
X017444Y003555
X011444Y017555
X008444Y003555
X018444Y002555
X016613Y009505
X015444Y018355
X025444Y003555
X003044Y004555
T101
X007444Y020555
X008444Y021555
X020444Y021555
X011444Y020555
X007444Y021555
X020444Y020555
X003444Y020555
X021444Y020555
X015444Y020555
X019444Y020555
X010444Y021555
X012444Y021555
X019444Y021555
X014444Y020555
X017444Y020555
X013444Y021555
X005444Y021555
X018444Y021555
X016444Y021555
X010444Y020555
X017444Y021555
X015444Y021555
X009444Y021555
X006444Y021555
X013444Y020555
X011444Y021555
X004444Y020555
X004444Y021555
X008444Y020555
X005444Y020555
X022444Y021555
X006444Y020555
X021444Y021555
X009444Y020555
X018444Y020555
X016444Y020555
X014444Y021555
X022444Y020555
X003444Y021555
X012444Y020555
T102
X004444Y006555
X027444Y005555
X027444Y007555
X030344Y001955
X027444Y008555
X027444Y006555
X032344Y001955
X027444Y004555
X004444Y005555
X027444Y003555
X004444Y008555
X029344Y002055
X004444Y007555
X031344Y002055
X004444Y004555
X004444Y003555
T103
X013194Y012255
X026944Y009755
X004944Y009755
X004944Y002255
X008694Y012255
X026944Y002255
T104
X020944Y014255
X017944Y014255
X018944Y014255
T105
X007644Y009355
X009044Y009355
T00
M30
