G04 MADE WITH FRITZING*
G04 WWW.FRITZING.ORG*
G04 DOUBLE SIDED*
G04 HOLES PLATED*
G04 CONTOUR ON CENTER OF CONTOUR VECTOR*
%ASAXBY*%
%FSLAX23Y23*%
%MOIN*%
%OFA0B0*%
%SFA1.0B1.0*%
%ADD10C,0.073749*%
%ADD11C,0.078740*%
%ADD12C,0.074000*%
%ADD13C,0.075361*%
%ADD14C,0.063000*%
%ADD15C,0.086000*%
%ADD16C,0.070000*%
%ADD17C,0.138425*%
%ADD18C,0.076000*%
%ADD19C,0.024000*%
%ADD20R,0.001000X0.001000*%
%LNCOPPER0*%
G90*
G70*
G54D10*
X1794Y1426D03*
X1894Y1426D03*
X2094Y1426D03*
G54D11*
X304Y456D03*
X544Y1856D03*
X444Y1586D03*
X744Y1406D03*
X1144Y1406D03*
X254Y1946D03*
X1464Y1946D03*
X1544Y1836D03*
X1644Y1736D03*
G54D12*
X2934Y206D03*
X3034Y196D03*
X3134Y206D03*
X3234Y196D03*
G54D11*
X2934Y856D03*
X2934Y476D03*
G54D13*
X344Y2056D03*
X444Y2056D03*
X544Y2056D03*
X644Y2056D03*
X744Y2056D03*
X844Y2056D03*
X944Y2056D03*
X1044Y2056D03*
X1144Y2056D03*
X1244Y2056D03*
X1344Y2056D03*
X1444Y2056D03*
X1544Y2056D03*
X1644Y2056D03*
X1744Y2056D03*
X1844Y2056D03*
X1944Y2056D03*
X2044Y2056D03*
X2144Y2056D03*
X2244Y2056D03*
X2244Y2156D03*
X2144Y2156D03*
X2044Y2156D03*
X1944Y2156D03*
X1844Y2156D03*
X1744Y2156D03*
X1644Y2156D03*
X1544Y2156D03*
X1444Y2156D03*
X1344Y2156D03*
X1244Y2156D03*
X1144Y2156D03*
X1044Y2156D03*
X944Y2156D03*
X844Y2156D03*
X744Y2156D03*
X644Y2156D03*
X544Y2156D03*
X444Y2156D03*
X344Y2156D03*
G54D14*
X904Y936D03*
X764Y936D03*
G54D15*
X1524Y951D03*
X1661Y951D03*
G54D16*
X1444Y356D03*
G54D17*
X494Y976D03*
G54D16*
X1444Y256D03*
X1444Y156D03*
X1344Y356D03*
X1344Y256D03*
X1344Y156D03*
X1244Y356D03*
X1244Y256D03*
X1244Y156D03*
X1144Y356D03*
X1144Y256D03*
X1144Y156D03*
X944Y356D03*
X944Y256D03*
X944Y156D03*
X844Y356D03*
X844Y256D03*
X844Y156D03*
X744Y356D03*
X744Y256D03*
X744Y156D03*
X644Y356D03*
X644Y256D03*
X644Y156D03*
X444Y356D03*
X444Y456D03*
X444Y556D03*
G54D17*
X2694Y976D03*
G54D16*
X444Y656D03*
X444Y756D03*
X444Y856D03*
X2744Y356D03*
X2744Y456D03*
X2744Y556D03*
X2744Y656D03*
X2744Y756D03*
X2744Y856D03*
X2544Y356D03*
X2544Y256D03*
X2544Y156D03*
X2444Y356D03*
X2444Y256D03*
X2444Y156D03*
X2344Y356D03*
X2344Y256D03*
X2344Y156D03*
X2244Y356D03*
X2244Y256D03*
X2244Y156D03*
X2044Y356D03*
X2044Y256D03*
X2044Y156D03*
X1944Y356D03*
X1944Y256D03*
X1944Y156D03*
X1844Y356D03*
X1844Y256D03*
X1844Y156D03*
X1744Y356D03*
X1744Y256D03*
X1744Y156D03*
G54D17*
X494Y226D03*
X2694Y226D03*
G54D18*
X844Y1756D03*
X944Y1756D03*
X1044Y1756D03*
X1144Y1756D03*
X1244Y1756D03*
X1344Y1756D03*
G54D17*
X1319Y1226D03*
X869Y1226D03*
G54D19*
X445Y1586D02*
X944Y1585D01*
D02*
X461Y1612D02*
X445Y1586D01*
D02*
X944Y1585D02*
X944Y1725D01*
D02*
X575Y1856D02*
X1045Y1855D01*
D02*
X1045Y1855D02*
X1045Y1786D01*
D02*
X1035Y656D02*
X476Y656D01*
D02*
X1044Y1725D02*
X1035Y656D01*
D02*
X445Y1165D02*
X295Y1165D01*
D02*
X295Y555D02*
X413Y555D01*
D02*
X295Y1165D02*
X295Y555D01*
D02*
X445Y1586D02*
X445Y1165D01*
D02*
X335Y456D02*
X413Y456D01*
D02*
X1244Y1316D02*
X1184Y1316D01*
D02*
X1184Y1164D02*
X1184Y467D01*
D02*
X1245Y1615D02*
X1244Y1316D01*
D02*
X1343Y1615D02*
X1245Y1615D01*
D02*
X1344Y1725D02*
X1343Y1615D01*
D02*
X1184Y1316D02*
X1184Y1164D01*
D02*
X1184Y467D02*
X476Y456D01*
D02*
X744Y855D02*
X744Y1375D01*
D02*
X476Y855D02*
X744Y855D01*
D02*
X1144Y1625D02*
X1143Y1626D01*
D02*
X1143Y1626D02*
X1144Y1725D01*
D02*
X1144Y1436D02*
X1144Y1625D01*
D02*
X1434Y1946D02*
X285Y1946D01*
D02*
X1465Y1276D02*
X1894Y1276D01*
D02*
X1894Y1276D02*
X1894Y1393D01*
D02*
X1464Y1915D02*
X1465Y1276D01*
D02*
X1544Y1426D02*
X1762Y1426D01*
D02*
X1544Y1805D02*
X1544Y1426D01*
D02*
X2096Y1517D02*
X2095Y1458D01*
D02*
X1645Y1516D02*
X2096Y1517D01*
D02*
X1645Y1705D02*
X1645Y1516D01*
D02*
X3244Y86D02*
X2844Y86D01*
D02*
X2844Y86D02*
X2844Y455D01*
D02*
X2844Y455D02*
X2776Y455D01*
D02*
X3237Y165D02*
X3244Y86D01*
D02*
X3135Y655D02*
X2776Y656D01*
D02*
X3134Y237D02*
X3135Y655D01*
D02*
X3035Y555D02*
X2776Y555D01*
D02*
X3034Y227D02*
X3035Y555D01*
D02*
X2934Y445D02*
X2934Y237D01*
D02*
X2904Y856D02*
X2776Y856D01*
G54D20*
X2898Y243D02*
X2970Y243D01*
X2897Y242D02*
X2970Y242D01*
X2897Y241D02*
X2970Y241D01*
X2897Y240D02*
X2970Y240D01*
X2897Y239D02*
X2970Y239D01*
X2897Y238D02*
X2970Y238D01*
X2897Y237D02*
X2970Y237D01*
X2897Y236D02*
X2970Y236D01*
X2897Y235D02*
X2970Y235D01*
X2897Y234D02*
X2970Y234D01*
X2897Y233D02*
X2970Y233D01*
X2897Y232D02*
X2970Y232D01*
X2897Y231D02*
X2970Y231D01*
X2897Y230D02*
X2970Y230D01*
X2897Y229D02*
X2970Y229D01*
X2897Y228D02*
X2970Y228D01*
X2897Y227D02*
X2970Y227D01*
X2897Y226D02*
X2970Y226D01*
X2897Y225D02*
X2927Y225D01*
X2940Y225D02*
X2970Y225D01*
X2897Y224D02*
X2925Y224D01*
X2943Y224D02*
X2970Y224D01*
X2897Y223D02*
X2923Y223D01*
X2945Y223D02*
X2970Y223D01*
X2897Y222D02*
X2921Y222D01*
X2946Y222D02*
X2970Y222D01*
X2897Y221D02*
X2920Y221D01*
X2947Y221D02*
X2970Y221D01*
X2897Y220D02*
X2919Y220D01*
X2948Y220D02*
X2970Y220D01*
X2897Y219D02*
X2918Y219D01*
X2949Y219D02*
X2970Y219D01*
X2897Y218D02*
X2917Y218D01*
X2950Y218D02*
X2970Y218D01*
X2897Y217D02*
X2916Y217D01*
X2951Y217D02*
X2970Y217D01*
X2897Y216D02*
X2916Y216D01*
X2951Y216D02*
X2970Y216D01*
X2897Y215D02*
X2915Y215D01*
X2952Y215D02*
X2970Y215D01*
X2897Y214D02*
X2915Y214D01*
X2952Y214D02*
X2970Y214D01*
X2897Y213D02*
X2914Y213D01*
X2953Y213D02*
X2970Y213D01*
X2897Y212D02*
X2914Y212D01*
X2953Y212D02*
X2970Y212D01*
X2897Y211D02*
X2914Y211D01*
X2953Y211D02*
X2970Y211D01*
X2897Y210D02*
X2914Y210D01*
X2954Y210D02*
X2970Y210D01*
X2897Y209D02*
X2913Y209D01*
X2954Y209D02*
X2970Y209D01*
X2897Y208D02*
X2913Y208D01*
X2954Y208D02*
X2970Y208D01*
X2897Y207D02*
X2913Y207D01*
X2954Y207D02*
X2970Y207D01*
X2897Y206D02*
X2913Y206D01*
X2954Y206D02*
X2970Y206D01*
X2897Y205D02*
X2913Y205D01*
X2954Y205D02*
X2970Y205D01*
X2897Y204D02*
X2913Y204D01*
X2954Y204D02*
X2970Y204D01*
X2897Y203D02*
X2913Y203D01*
X2954Y203D02*
X2970Y203D01*
X2897Y202D02*
X2914Y202D01*
X2954Y202D02*
X2970Y202D01*
X2897Y201D02*
X2914Y201D01*
X2953Y201D02*
X2970Y201D01*
X2897Y200D02*
X2914Y200D01*
X2953Y200D02*
X2970Y200D01*
X2897Y199D02*
X2914Y199D01*
X2953Y199D02*
X2970Y199D01*
X2897Y198D02*
X2915Y198D01*
X2952Y198D02*
X2970Y198D01*
X2897Y197D02*
X2915Y197D01*
X2952Y197D02*
X2970Y197D01*
X2897Y196D02*
X2916Y196D01*
X2951Y196D02*
X2970Y196D01*
X2897Y195D02*
X2916Y195D01*
X2951Y195D02*
X2970Y195D01*
X2897Y194D02*
X2917Y194D01*
X2950Y194D02*
X2970Y194D01*
X2897Y193D02*
X2918Y193D01*
X2949Y193D02*
X2970Y193D01*
X2897Y192D02*
X2919Y192D01*
X2948Y192D02*
X2970Y192D01*
X2897Y191D02*
X2920Y191D01*
X2947Y191D02*
X2970Y191D01*
X2897Y190D02*
X2921Y190D01*
X2946Y190D02*
X2970Y190D01*
X2897Y189D02*
X2923Y189D01*
X2944Y189D02*
X2970Y189D01*
X2897Y188D02*
X2925Y188D01*
X2943Y188D02*
X2970Y188D01*
X2897Y187D02*
X2927Y187D01*
X2940Y187D02*
X2970Y187D01*
X2897Y186D02*
X2970Y186D01*
X2897Y185D02*
X2970Y185D01*
X2897Y184D02*
X2970Y184D01*
X2897Y183D02*
X2970Y183D01*
X2897Y182D02*
X2970Y182D01*
X2897Y181D02*
X2970Y181D01*
X2897Y180D02*
X2970Y180D01*
X2897Y179D02*
X2970Y179D01*
X2897Y178D02*
X2970Y178D01*
X2897Y177D02*
X2970Y177D01*
X2897Y176D02*
X2970Y176D01*
X2897Y175D02*
X2970Y175D01*
X2897Y174D02*
X2970Y174D01*
X2897Y173D02*
X2970Y173D01*
X2897Y172D02*
X2970Y172D01*
X2897Y171D02*
X2970Y171D01*
X2897Y170D02*
X2970Y170D01*
D02*
G04 End of Copper0*
M02*