<?xml version="1.0" encoding="UTF-8" standalone="no"?>
<svg
   xmlns:osb="http://www.openswatchbook.org/uri/2009/osb"
   xmlns:dc="http://purl.org/dc/elements/1.1/"
   xmlns:cc="http://creativecommons.org/ns#"
   xmlns:rdf="http://www.w3.org/1999/02/22-rdf-syntax-ns#"
   xmlns:svg="http://www.w3.org/2000/svg"
   xmlns="http://www.w3.org/2000/svg"
   xmlns:sodipodi="http://sodipodi.sourceforge.net/DTD/sodipodi-0.dtd"
   xmlns:inkscape="http://www.inkscape.org/namespaces/inkscape"
   version="1.1"
   width="581.95282"
   height="526.96057"
   id="svg4628"
   viewBox="0 0 581.95282 526.96057"
   sodipodi:docname="WatechParkCase(inkscape).svg"
   inkscape:version="0.92.4 (5da689c313, 2019-01-14)">
  <metadata
     id="metadata4634">
    <rdf:RDF>
      <cc:Work
         rdf:about="">
        <dc:format>image/svg+xml</dc:format>
        <dc:type
           rdf:resource="http://purl.org/dc/dcmitype/StillImage" />
        <dc:title></dc:title>
      </cc:Work>
    </rdf:RDF>
  </metadata>
  <defs
     id="defs4632">
    <linearGradient
       id="linearGradient6385"
       osb:paint="solid">
      <stop
         style="stop-color:#ff0000;stop-opacity:1;"
         offset="0"
         id="stop6383" />
    </linearGradient>
  </defs>
  <sodipodi:namedview
     pagecolor="#ffffff"
     bordercolor="#666666"
     borderopacity="1"
     objecttolerance="10"
     gridtolerance="10"
     guidetolerance="10"
     inkscape:pageopacity="0"
     inkscape:pageshadow="2"
     inkscape:window-width="1920"
     inkscape:window-height="1001"
     id="namedview4630"
     showgrid="false"
     inkscape:zoom="2.9"
     inkscape:cx="326.01416"
     inkscape:cy="195.29602"
     inkscape:window-x="-9"
     inkscape:window-y="-9"
     inkscape:window-maximized="1"
     inkscape:current-layer="svg4628" />
  <path
     d="m 563.2598,187.9148 c 0,-0.1603 -0.1287,-0.281 -0.3004,-0.281 h -46.8338 v -5.9485 c 0,-0.3773 -0.0977,-0.7454 -0.2456,-1.0724 -0.1479,-0.327 -0.336,-0.6209 -0.6004,-0.8679 -0.2644,-0.2474 -0.5787,-0.449 -0.9279,-0.5873 -0.3496,-0.1384 -0.743,-0.2041 -1.1464,-0.2041 h -25.1091 c -0.4034,0 -0.7969,0.066 -1.1464,0.2041 -0.3496,0.1383 -0.6638,0.3399 -0.9279,0.5873 -0.2644,0.2473 -0.48,0.5412 -0.6278,0.8679 -0.1479,0.327 -0.2182,0.6951 -0.2182,1.0724 v 5.9485 h -108.351 v -5.9485 c 0,-0.3773 -0.0978,-0.7454 -0.2456,-1.0724 -0.1479,-0.327 -0.3635,-0.6209 -0.6279,-0.8679 -0.2644,-0.2474 -0.5786,-0.449 -0.9278,-0.5873 -0.3496,-0.1384 -0.7157,-0.2041 -1.119,-0.2041 h -25.1092 c -0.4033,0 -0.7968,0.066 -1.1464,0.2041 -0.3495,0.1383 -0.6638,0.3399 -0.9278,0.5873 -0.2644,0.2473 -0.48,0.5412 -0.6279,0.8679 -0.1478,0.327 -0.2182,0.6951 -0.2182,1.0724 v 5.9485 h -46.779 c -0.1713,0 -0.3004,0.1204 -0.3004,0.281 v 164.3367 c 0,0.1603 0.1287,0.281 0.3004,0.281 h 46.779 v 5.9485 c 0,0.3773 0.0978,0.7454 0.2456,1.0724 0.1479,0.327 0.3635,0.6209 0.6279,0.8679 0.2644,0.2474 0.5786,0.449 0.9278,0.5873 0.3496,0.1383 0.7157,0.2041 1.119,0.2041 h 25.1092 c 0.4033,0 0.7968,-0.0661 1.1464,-0.2041 0.3495,-0.1383 0.6638,-0.3399 0.9278,-0.5873 0.2644,-0.2473 0.48,-0.5412 0.6279,-0.8679 0.1478,-0.327 0.2182,-0.6951 0.2182,-1.0724 v -5.9485 h 108.351 v 5.9485 c 0,0.3773 0.0977,0.7454 0.2456,1.0724 0.1478,0.327 0.3634,0.6209 0.6278,0.8679 0.2644,0.2474 0.5786,0.449 0.9279,0.5873 0.3495,0.1383 0.7156,0.2041 1.119,0.2041 h 25.1091 c 0.4034,0 0.7968,-0.0661 1.1464,-0.2041 0.3495,-0.1383 0.6638,-0.3399 0.9279,-0.5873 0.2644,-0.2473 0.4799,-0.5412 0.6278,-0.8679 0.1479,-0.327 0.2182,-0.6951 0.2182,-1.0724 v -5.9485 h 46.8338 c 0.1714,0 0.3004,-0.1204 0.3004,-0.281 z"
     style="fill:none;stroke:#ff0000;stroke-width:0.416;stroke-linecap:butt;stroke-linejoin:miter;stroke-dasharray:none;stroke-opacity:1;stroke-miterlimit:4"
     id="path4268"
     inkscape:connector-curvature="0" />
  <g
     id="g6466">
    <path
       d="m 489.2213,200.7805 c 0,2.0902 -1.696,3.7844 -3.7883,3.7844 -2.0922,0 -3.7882,-1.6942 -3.7882,-3.7844 0,-2.0901 1.696,-3.7843 3.7882,-3.7843 2.0923,0 3.7883,1.6942 3.7883,3.7843 z"
       style="fill:none;stroke:#ff0000;stroke-width:0.21600001;stroke-linecap:butt;stroke-linejoin:miter;stroke-dasharray:none"
       id="path4270"
       inkscape:connector-curvature="0" />
    <path
       d="m 489.2213,339.4156 c 0,2.0902 -1.696,3.7844 -3.7883,3.7844 -2.0922,0 -3.7882,-1.6942 -3.7882,-3.7844 0,-2.0901 1.696,-3.7843 3.7882,-3.7843 2.0923,0 3.7883,1.6942 3.7883,3.7843 z"
       style="fill:none;stroke:#ff0000;stroke-width:0.21600001;stroke-linecap:butt;stroke-linejoin:miter;stroke-dasharray:none"
       id="path4272"
       inkscape:connector-curvature="0" />
    <path
       d="m 325.1253,339.4156 c 0,2.0902 -1.696,3.7844 -3.7882,3.7844 -2.0923,0 -3.7883,-1.6942 -3.7883,-3.7844 0,-2.0901 1.696,-3.7843 3.7883,-3.7843 2.0922,0 3.7882,1.6942 3.7882,3.7843 z"
       style="fill:none;stroke:#ff0000;stroke-width:0.21600001;stroke-linecap:butt;stroke-linejoin:miter;stroke-dasharray:none"
       id="path4274"
       inkscape:connector-curvature="0" />
    <path
       d="m 325.1253,200.7805 c 0,2.0902 -1.696,3.7844 -3.7882,3.7844 -2.0923,0 -3.7883,-1.6942 -3.7883,-3.7844 0,-2.0901 1.696,-3.7843 3.7883,-3.7843 2.0922,0 3.7882,1.6942 3.7882,3.7843 z"
       style="fill:none;stroke:#ff0000;stroke-width:0.21600001;stroke-linecap:butt;stroke-linejoin:miter;stroke-dasharray:none"
       id="path4276"
       inkscape:connector-curvature="0" />
  </g>
  <g
     id="Layer1001" />
  <g
     id="Layer1002" />
  <path
     inkscape:connector-curvature="0"
     id="path4505"
     style="fill:none;stroke:#ff0000;stroke-width:0.21600001;stroke-linecap:butt;stroke-linejoin:miter;stroke-dasharray:none"
     d="m 220.3686,385.6684 h 29.8987 v -8.7546 h -29.8987 z" />
  <path
     inkscape:connector-curvature="0"
     id="path4507"
     style="fill:none;stroke:#ff0000;stroke-width:0.21600001;stroke-linecap:butt;stroke-linejoin:miter;stroke-dasharray:none"
     d="m 85.6692,385.6684 h 29.9252 v -8.7546 H 85.6692 Z" />
  <path
     inkscape:connector-curvature="0"
     id="path4509"
     style="fill:none;stroke:#ff0000;stroke-width:0.21600001;stroke-linecap:butt;stroke-linejoin:miter;stroke-dasharray:none"
     d="m 220.2324,496.991 h 29.8988 v -8.7546 h -29.8988 z" />
  <path
     inkscape:connector-curvature="0"
     id="path4511"
     style="fill:none;stroke:#ff0000;stroke-width:0.21600001;stroke-linecap:butt;stroke-linejoin:miter;stroke-dasharray:none"
     d="m 85.5166,496.991 h 29.9252 v -8.7546 H 85.5166 Z" />
  <g
     id="Layer1004" />
  <g
     id="Layer1005" />
  <g
     id="Layer1006">
    <path
       inkscape:connector-curvature="0"
       id="path4519"
       style="fill:none;stroke:#3374a9;stroke-width:0.21600001;stroke-linecap:butt;stroke-linejoin:miter;stroke-dasharray:none"
       d="m 28.3963,496.9349 -50.9479,-0.2191" />
    <path
       inkscape:connector-curvature="0"
       id="path4521"
       style="fill:none;stroke:#3374a9;stroke-width:0.21600001;stroke-linecap:butt;stroke-linejoin:miter;stroke-dasharray:none"
       d="m 28.925,373.9819 -50.9479,-0.2191" />
    <path
       inkscape:connector-curvature="0"
       id="path4523"
       style="fill:none;stroke:#3374a9;stroke-width:0.21600001;stroke-linecap:butt;stroke-linejoin:miter;stroke-dasharray:none"
       d="m -15.3289,465.0129 -0.1364,31.7332" />
    <path
       inkscape:connector-curvature="0"
       id="path4525"
       style="fill:none;stroke:#3374a9;stroke-width:0.21600001;stroke-linecap:butt;stroke-linejoin:miter;stroke-dasharray:none"
       d="m -14.9366,373.7931 -0.1352,31.4442" />
  </g>
  <text
     id="text4530"
     y="461.3624"
     x="-19.587999">
    <tspan
       style="font-size:12px;font-family:Arial;fill:#3374a9"
       id="tspan4528"
       font-size="12.0000">43.38 mm</tspan>
  </text>
  <path
     d="m 202.623,152.441 h 9.3766 v -32.9451 h -9.3766 z"
     style="fill:none;stroke:#ff0000;stroke-width:0.21600001;stroke-linecap:butt;stroke-linejoin:miter;stroke-dasharray:none"
     id="path4533"
     inkscape:connector-curvature="0" />
  <path
     d="m 202.623,47.7315 h 9.3766 V 14.7863 h -9.3766 z"
     style="fill:none;stroke:#ff0000;stroke-width:0.21600001;stroke-linecap:butt;stroke-linejoin:miter;stroke-dasharray:none"
     id="path4535"
     inkscape:connector-curvature="0" />
  <path
     d="m 15.1975,152.4445 h 9.3766 v -32.9451 h -9.3766 z"
     style="fill:none;stroke:#ff0000;stroke-width:0.21600001;stroke-linecap:butt;stroke-linejoin:miter;stroke-dasharray:none"
     id="path4537"
     inkscape:connector-curvature="0" />
  <path
     d="m 15.1975,47.735 h 9.3766 V 14.7898 h -9.3766 z"
     style="fill:none;stroke:#ff0000;stroke-width:0.21600001;stroke-linecap:butt;stroke-linejoin:miter;stroke-dasharray:none"
     id="path4539"
     inkscape:connector-curvature="0" />
  <path
     d="m 218.2457,17.9221 c 0,-1.3447 -0.2505,-2.6119 -0.7165,-3.7774 -0.4663,-1.1652 -1.1518,-2.2274 -1.9848,-3.1088 -0.8333,-0.8816 -1.8203,-1.5996 -2.922,-2.092 -1.1014,-0.4932 -2.312,-0.7556 -3.5834,-0.7556 H 18.1485 c -1.2714,0 -2.4818,0.2624 -3.5834,0.7556 -1.1017,0.4928 -2.0888,1.2104 -2.9221,2.092 -0.8329,0.8814 -1.5184,1.9436 -1.9844,3.1088 -0.4663,1.1655 -0.7168,2.4327 -0.7168,3.7774"
     style="fill:none;stroke:#00ff00;stroke-width:0.21600001;stroke-linecap:butt;stroke-linejoin:miter;stroke-dasharray:none"
     id="path4541"
     inkscape:connector-curvature="0" />
  <path
     d="m 8.9418,159.0465 c 0,5.4038 4.19,9.7919 9.3445,9.7919 3.066,0 5.6874,-1.625 7.4702,-3.9517 2.4451,-3.1916 5.9108,-5.8402 17.9173,-5.8402 h 139.8668 c 12.0072,0 15.445,2.6486 17.89,5.8402 1.7828,2.3267 4.4315,3.9227 7.4979,3.9227 5.1548,0 9.3172,-4.3594 9.3172,-9.7629"
     style="fill:none;stroke:#00ff00;stroke-width:0.21600001;stroke-linecap:butt;stroke-linejoin:miter;stroke-dasharray:none"
     id="path4543"
     inkscape:connector-curvature="0" />
  <path
     d="m 166.8569,69.5565 h 1.0442 v 7.2075 h 3.7576 v 0.9263 h -4.8014 v -8.1338 z m 0,0 v 0 z"
     style="fill:#000000;fill-rule:evenodd"
     id="path4545"
     inkscape:connector-curvature="0" />
  <path
     d="m 175.5761,70.6406 -1.4163,4.0479 h 2.8375 z m -0.5891,-1.0841 h 1.1835 l 2.9408,8.1338 h -1.0855 l -0.7028,-2.0867 h -3.4782 l -0.7028,2.0867 h -1.1009 l 2.9462,-8.1338 z m 0,0 v 0 z"
     style="fill:#000000;fill-rule:evenodd"
     id="path4547"
     inkscape:connector-curvature="0" />
  <path
     d="m 180.2328,69.5565 h 1.4059 l 3.4216,6.8044 v -6.8044 h 1.0132 v 8.1338 h -1.4059 l -3.4216,-6.8044 v 6.8044 h -1.0132 z"
     style="fill:#000000;fill-rule:evenodd"
     id="path4549"
     inkscape:connector-curvature="0" />
  <path
     d="m 105.9863,60.3494 h 1.0492 v 4.9412 c 0,0.8715 0.15,1.4998 0.4497,1.885 0.2997,0.3813 0.7855,0.5721 1.4576,0.5721 0.6684,0 1.1525,-0.1908 1.4522,-0.5721 0.2998,-0.3852 0.4498,-1.0135 0.4498,-1.885 v -4.9412 h 1.0492 v 5.0775 c 0,1.0606 -0.2498,1.8615 -0.7495,2.4027 -0.4961,0.5411 -1.2302,0.8117 -2.2017,0.8117 -0.9752,0 -1.7126,-0.2706 -2.212,-0.8117 -0.4961,-0.5412 -0.7442,-1.3421 -0.7442,-2.4027 v -5.0775 z m 0,0 v 0 z"
     style="fill:#000000;fill-rule:evenodd"
     id="path4551"
     inkscape:connector-curvature="0" />
  <path
     d="m 118.4837,60.6161 v 1.0732 c -0.3964,-0.1996 -0.7701,-0.3486 -1.1215,-0.4466 -0.3514,-0.0981 -0.6908,-0.1473 -1.0182,-0.1473 -0.5684,0 -1.0078,0.1163 -1.3179,0.3486 -0.3067,0.2323 -0.46,0.563 -0.46,0.9917 0,0.3595 0.1017,0.6318 0.305,0.817 0.2067,0.1817 0.5961,0.3286 1.1682,0.4414 l 0.6305,0.1364 c 0.7788,0.156 1.3525,0.4322 1.7209,0.8279 0.3721,0.3922 0.5581,0.919 0.5581,1.58 0,0.7882 -0.2514,1.3856 -0.7545,1.7922 -0.4997,0.4069 -1.2335,0.61 -2.2017,0.61 -0.3654,0 -0.7544,-0.0435 -1.1682,-0.1307 -0.41,-0.0871 -0.8354,-0.2161 -1.2765,-0.3869 v -1.1333 c 0.4237,0.2505 0.8391,0.4396 1.2455,0.5665 0.4068,0.1272 0.8062,0.1908 1.1992,0.1908 0.5961,0 1.0562,-0.1234 1.3799,-0.3704 0.3238,-0.247 0.4858,-0.5992 0.4858,-1.0571 0,-0.3995 -0.117,-0.7119 -0.3514,-0.9372 -0.2307,-0.2252 -0.6118,-0.3939 -1.1422,-0.5067 l -0.6358,-0.1307 c -0.7788,-0.1635 -1.3422,-0.4196 -1.6899,-0.7682 -0.3481,-0.3486 -0.5221,-0.8336 -0.5221,-1.4545 0,-0.719 0.2394,-1.2859 0.7184,-1.6998 0.4825,-0.414 1.1456,-0.621 1.99,-0.621 0.3618,0 0.7305,0.0344 1.1062,0.1037 0.3758,0.0689 0.7598,0.1725 1.1526,0.3106 z m 0,0 v 0 z"
     style="fill:#000000;fill-rule:evenodd"
     id="path4553"
     inkscape:connector-curvature="0" />
  <path
     d="m 121.6209,64.5987 v 2.98 h 1.6746 c 0.5618,0 0.9769,-0.1216 1.2456,-0.3652 0.272,-0.247 0.4084,-0.6227 0.4084,-1.1277 0,-0.5084 -0.136,-0.8824 -0.4084,-1.1224 -0.2687,-0.2431 -0.6841,-0.3651 -1.2456,-0.3651 h -1.6746 m 0,-3.3448 v 2.4515 h 1.5453 c 0.5101,0 0.8888,-0.0998 1.1372,-0.2997 0.2513,-0.2035 0.3774,-0.5121 0.3774,-0.926 0,-0.4105 -0.1257,-0.7173 -0.3774,-0.9207 -0.2481,-0.2035 -0.6271,-0.3051 -1.1372,-0.3051 z m -1.0438,-0.9041 h 2.6671 c 0.7958,0 1.4092,0.1743 1.84,0.5229 0.4307,0.3486 0.6461,0.8444 0.6461,1.4871 0,0.4977 -0.1104,0.8933 -0.3307,1.1878 -0.2204,0.2942 -0.5445,0.4776 -0.9719,0.5503 0.5134,0.1164 0.9115,0.3595 1.1939,0.7299 0.286,0.3669 0.4291,0.8262 0.4291,1.3783 0,0.7264 -0.2344,1.2876 -0.7028,1.6833 -0.4688,0.396 -1.1355,0.5938 -2.0004,0.5938 h -2.7704 V 60.349 Z m 0,0 v 0 z"
     style="fill:#000000;fill-rule:evenodd"
     id="path4555"
     inkscape:connector-curvature="0" />
  <path
     d="m 51.3226,58.624 h 1.0492 v 4.9412 c 0,0.8716 0.15,1.4999 0.4497,1.885 0.2997,0.3813 0.7855,0.5721 1.4576,0.5721 0.6684,0 1.1525,-0.1908 1.4522,-0.5721 0.2997,-0.3851 0.4498,-1.0134 0.4498,-1.885 V 58.624 h 1.0492 v 5.0776 c 0,1.0606 -0.2498,1.8614 -0.7495,2.4026 -0.4961,0.5412 -1.2302,0.8118 -2.2017,0.8118 -0.9752,0 -1.7126,-0.2706 -2.212,-0.8118 -0.4961,-0.5412 -0.7442,-1.342 -0.7442,-2.4026 V 58.624 Z m 0,0 v 0 z"
     style="fill:#000000;fill-rule:evenodd"
     id="path4557"
     inkscape:connector-curvature="0" />
  <path
     d="m 63.82,58.8907 v 1.0733 c -0.3964,-0.1997 -0.7701,-0.3487 -1.1215,-0.4467 -0.3514,-0.098 -0.6908,-0.1472 -1.0182,-0.1472 -0.5684,0 -1.0078,0.1163 -1.3179,0.3486 -0.3067,0.2322 -0.46,0.5629 -0.46,0.9917 0,0.3595 0.1017,0.6318 0.305,0.817 0.2067,0.1817 0.5961,0.3286 1.1682,0.4414 l 0.6305,0.1363 c 0.7788,0.156 1.3525,0.4323 1.7209,0.828 0.3721,0.3921 0.5581,0.9189 0.5581,1.5799 0,0.7882 -0.2514,1.3856 -0.7545,1.7922 -0.4997,0.407 -1.2335,0.6101 -2.2017,0.6101 -0.3654,0 -0.7544,-0.0436 -1.1682,-0.1307 -0.41,-0.0872 -0.8354,-0.2162 -1.2765,-0.3869 v -1.1334 c 0.4237,0.2506 0.8391,0.4397 1.2455,0.5665 0.4068,0.1272 0.8062,0.1908 1.1992,0.1908 0.5961,0 1.0562,-0.1233 1.3799,-0.3704 0.3238,-0.247 0.4858,-0.5991 0.4858,-1.057 0,-0.3996 -0.117,-0.712 -0.3514,-0.9372 -0.2307,-0.2253 -0.6118,-0.394 -1.1422,-0.5068 l -0.6358,-0.1307 c -0.7788,-0.1634 -1.3422,-0.4196 -1.6899,-0.7682 -0.3481,-0.3486 -0.5221,-0.8335 -0.5221,-1.4545 0,-0.719 0.2394,-1.2858 0.7184,-1.6998 0.4825,-0.414 1.1456,-0.6209 1.99,-0.6209 0.3618,0 0.7305,0.0344 1.1062,0.1036 0.3758,0.0689 0.7598,0.1726 1.1526,0.3107 z m 0,0 v 0 z"
     style="fill:#000000;fill-rule:evenodd"
     id="path4559"
     inkscape:connector-curvature="0" />
  <path
     d="m 66.9572,62.8733 v 2.98 h 1.6746 c 0.5618,0 0.9769,-0.1216 1.2456,-0.3651 0.272,-0.2471 0.4084,-0.6227 0.4084,-1.1277 0,-0.5085 -0.136,-0.8824 -0.4084,-1.1224 -0.2687,-0.2432 -0.6841,-0.3651 -1.2456,-0.3651 h -1.6746 m 0,-3.3448 v 2.4515 h 1.5453 c 0.5101,0 0.8888,-0.0998 1.1372,-0.2998 0.2513,-0.2035 0.3774,-0.512 0.3774,-0.926 0,-0.4104 -0.1257,-0.7172 -0.3774,-0.9207 -0.2481,-0.2034 -0.6271,-0.305 -1.1372,-0.305 z M 65.913,58.624 h 2.6672 c 0.7958,0 1.4092,0.1743 1.8399,0.5229 0.4308,0.3486 0.6461,0.8445 0.6461,1.4872 0,0.4976 -0.1103,0.8933 -0.3307,1.1878 -0.2204,0.2941 -0.5444,0.4776 -0.9718,0.5503 0.5134,0.1163 0.9115,0.3595 1.1939,0.7299 0.286,0.3669 0.429,0.8262 0.429,1.3782 0,0.7264 -0.2343,1.2876 -0.7028,1.6833 -0.4687,0.3961 -1.1355,0.5939 -2.0003,0.5939 H 65.913 v -8.1338 z m 0,0 v 0 z"
     style="fill:#000000;fill-rule:evenodd"
     id="path4561"
     inkscape:connector-curvature="0" />
  <path
     d="m 148.9859,84.8449 h 47.6232 c 0.7759,-6e-4 1.4046,0.6621 1.4046,1.4793 l -6e-4,43.8341 c 6e-4,0.8169 -0.6281,1.4796 -1.4034,1.4796 l -47.6238,4e-4 c -0.7749,-4e-4 -1.4037,-0.6631 -1.4037,-1.4803 l -3e-4,-43.8331 c 3e-4,-0.8179 0.6291,-1.4806 1.4043,-1.4806 z"
     style="fill:none;stroke:#ff0000;stroke-width:0.21600001;stroke-linecap:butt;stroke-linejoin:round;stroke-dasharray:none"
     id="path4563"
     inkscape:connector-curvature="0" />
  <path
     d="m 93.4275,71.5595 h 45.2193 c 1.7266,-7e-4 3.1262,1.4745 3.1262,3.2938 l -7e-4,52.5945 c 7e-4,1.8189 -1.3989,3.2941 -3.1249,3.2941 l -45.2199,4e-4 c -1.7253,-4e-4 -3.1248,-1.4756 -3.1248,-3.2949 L 90.302,74.854 c 7e-4,-1.82 1.4002,-3.2952 3.1262,-3.2952 z"
     style="fill:none;stroke:#00ff00;stroke-width:0.21600001;stroke-linecap:butt;stroke-linejoin:round;stroke-dasharray:none"
     id="path4565"
     inkscape:connector-curvature="0" />
  <path
     d="M 36.3114,72.0285 H 81.531 c 1.7263,-7e-4 3.1259,1.4746 3.1259,3.2938 l -4e-4,52.5945 c 4e-4,1.8189 -1.3992,3.2942 -3.1252,3.2942 l -45.2199,3e-4 c -1.7253,-3e-4 -3.1249,-1.4756 -3.1249,-3.2948 l -6e-4,-52.5935 c 6e-4,-1.8199 1.4002,-3.2952 3.1262,-3.2952 z"
     style="fill:none;stroke:#ff0000;stroke-width:0.21600001;stroke-linecap:butt;stroke-linejoin:round;stroke-dasharray:none"
     id="path4567"
     inkscape:connector-curvature="0" />
  <path
     d="m 104.9391,93.8986 c -2.309,0 -4.1807,-1.975 -4.1807,-4.4113 0,-2.4364 1.8717,-4.4114 4.1807,-4.4114 2.3091,0 4.1807,1.975 4.1807,4.4114 0,2.4363 -1.8716,4.4113 -4.1807,4.4113 z"
     style="fill:none;stroke:#ff0000;stroke-width:0.21600001;stroke-linecap:butt;stroke-linejoin:miter;stroke-dasharray:none"
     id="path4569"
     inkscape:connector-curvature="0" />
  <path
     d="m 104.1557,99.233 c -4.7578,-0.4192 -8.4951,-4.6225 -8.4951,-9.7461 0,-5.4016 4.1543,-9.7806 9.2789,-9.7806 5.1245,0 9.2788,4.379 9.2788,9.7806 0,5.1233 -3.7369,9.3262 -8.4944,9.7461"
     style="fill:none;stroke:#ff0000;stroke-width:0.21600001;stroke-linecap:butt;stroke-linejoin:miter;stroke-dasharray:none"
     id="path4571"
     inkscape:connector-curvature="0" />
  <path
     d="m 127.1352,93.8986 c -2.3091,0 -4.1807,-1.975 -4.1807,-4.4113 0,-2.4364 1.8716,-4.4114 4.1807,-4.4114 2.309,0 4.1807,1.975 4.1807,4.4114 0,2.4363 -1.8717,4.4113 -4.1807,4.4113 z"
     style="fill:none;stroke:#ff0000;stroke-width:0.21600001;stroke-linecap:butt;stroke-linejoin:miter;stroke-dasharray:none"
     id="path4573"
     inkscape:connector-curvature="0" />
  <path
     d="m 126.3517,99.233 c -4.7578,-0.4192 -8.4951,-4.6225 -8.4951,-9.7461 0,-5.4016 4.1544,-9.7806 9.2789,-9.7806 5.1245,0 9.2789,4.379 9.2789,9.7806 0,5.1233 -3.737,9.3262 -8.4944,9.7461"
     style="fill:none;stroke:#ff0000;stroke-width:0.21600001;stroke-linecap:butt;stroke-linejoin:miter;stroke-dasharray:none"
     id="path4575"
     inkscape:connector-curvature="0" />
  <path
     d="m 104.9391,117.2603 c -2.309,0 -4.1807,-1.975 -4.1807,-4.4113 0,-2.4364 1.8717,-4.4114 4.1807,-4.4114 2.3091,0 4.1807,1.975 4.1807,4.4114 0,2.4363 -1.8716,4.4113 -4.1807,4.4113 z"
     style="fill:none;stroke:#ff0000;stroke-width:0.21600001;stroke-linecap:butt;stroke-linejoin:miter;stroke-dasharray:none"
     id="path4577"
     inkscape:connector-curvature="0" />
  <path
     d="m 104.1557,122.5951 c -4.7578,-0.4193 -8.4951,-4.6225 -8.4951,-9.7461 0,-5.4016 4.1543,-9.7806 9.2789,-9.7806 5.1245,0 9.2788,4.379 9.2788,9.7806 0,5.1232 -3.7369,9.3261 -8.4944,9.7461"
     style="fill:none;stroke:#ff0000;stroke-width:0.21600001;stroke-linecap:butt;stroke-linejoin:miter;stroke-dasharray:none"
     id="path4579"
     inkscape:connector-curvature="0" />
  <path
     d="m 127.1352,117.2603 c -2.3091,0 -4.1807,-1.975 -4.1807,-4.4113 0,-2.4364 1.8716,-4.4114 4.1807,-4.4114 2.309,0 4.1807,1.975 4.1807,4.4114 0,2.4363 -1.8717,4.4113 -4.1807,4.4113 z"
     style="fill:none;stroke:#ff0000;stroke-width:0.21600001;stroke-linecap:butt;stroke-linejoin:miter;stroke-dasharray:none"
     id="path4581"
     inkscape:connector-curvature="0" />
  <path
     d="m 126.3517,122.5951 c -4.7578,-0.4193 -8.4951,-4.6225 -8.4951,-9.7461 0,-5.4016 4.1544,-9.7806 9.2789,-9.7806 5.1245,0 9.2789,4.379 9.2789,9.7806 0,5.1232 -3.737,9.3261 -8.4944,9.7461"
     style="fill:none;stroke:#ff0000;stroke-width:0.21600001;stroke-linecap:butt;stroke-linejoin:miter;stroke-dasharray:none"
     id="path4583"
     inkscape:connector-curvature="0" />
  <g
     id="Layer1007" />
  <g
     id="Layer1008" />
  <path
     inkscape:connector-curvature="0"
     id="path4587"
     style="fill:none;stroke:#ff0000;stroke-width:0.21600001;stroke-linecap:butt;stroke-linejoin:miter;stroke-dasharray:none"
     d="m 362.9168,381.319 h -9.3642 v 29.2575 h 9.3642 z" />
  <path
     inkscape:connector-curvature="0"
     id="path4589"
     style="fill:none;stroke:#ff0000;stroke-width:0.21600001;stroke-linecap:butt;stroke-linejoin:miter;stroke-dasharray:none"
     d="m 362.64,475.2714 h -9.3642 v 29.2575 h 9.3642 z" />
  <path
     inkscape:connector-curvature="0"
     id="path4591"
     style="fill:none;stroke:#ff0000;stroke-width:0.21600001;stroke-linecap:butt;stroke-linejoin:miter;stroke-dasharray:none"
     d="m 550.0947,381.3159 h -9.3642 v 29.2575 h 9.3642 z" />
  <path
     inkscape:connector-curvature="0"
     id="path4593"
     style="fill:none;stroke:#ff0000;stroke-width:0.21600001;stroke-linecap:butt;stroke-linejoin:miter;stroke-dasharray:none"
     d="m 549.8179,475.2683 h -9.3641 v 29.2575 h 9.3641 z" />
  <path
     inkscape:connector-curvature="0"
     id="path4613"
     style="fill:none;stroke:#00ff00;stroke-width:0.21600001;stroke-linecap:butt;stroke-linejoin:miter;stroke-dasharray:none"
     d="M 347.3172,375.4488 347.0404,501.74" />
  <path
     inkscape:connector-curvature="0"
     id="path4615"
     style="fill:none;stroke:#00ff00;stroke-width:0.21600001;stroke-linecap:butt;stroke-linejoin:miter;stroke-dasharray:none"
     d="m 556.345,375.4485 -0.2768,126.2912" />
  <path
     d="m 273.0887,188.0584 c 0,-0.1509 -0.1288,-0.2646 -0.3004,-0.2646 h -46.8338 v -5.6001 c 0,-0.3552 -0.0977,-0.7017 -0.2456,-1.0095 -0.1479,-0.3079 -0.3361,-0.5846 -0.6005,-0.8171 -0.2644,-0.2329 -0.5786,-0.4227 -0.9278,-0.5529 -0.3496,-0.1303 -0.7431,-0.1922 -1.1464,-0.1922 h -25.1091 c -0.4034,0 -0.7969,0.0622 -1.1464,0.1922 -0.3496,0.1302 -0.6638,0.32 -0.9279,0.5529 -0.2644,0.2328 -0.48,0.5095 -0.6278,0.8171 -0.1479,0.3078 -0.2182,0.6543 -0.2182,1.0095 v 5.6001 H 86.6538 v -5.6001 c 0,-0.3552 -0.0977,-0.7017 -0.2456,-1.0095 -0.1479,-0.3079 -0.3634,-0.5846 -0.6278,-0.8171 -0.2644,-0.2329 -0.5786,-0.4227 -0.9279,-0.5529 -0.3495,-0.1303 -0.7156,-0.1922 -1.119,-0.1922 H 58.6244 c -0.4034,0 -0.7968,0.0622 -1.1464,0.1922 -0.3495,0.1302 -0.6638,0.32 -0.9279,0.5529 -0.2644,0.2328 -0.4799,0.5095 -0.6278,0.8171 -0.1479,0.3078 -0.2182,0.6543 -0.2182,1.0095 v 5.6001 H 8.9251 c -0.1713,0 -0.3004,0.1134 -0.3004,0.2646 v 165.0802 c 0,0.1508 0.1287,0.2645 0.3004,0.2645 h 46.779 v 5.6001 c 0,0.3552 0.0977,0.7017 0.2456,1.0095 0.1479,0.3079 0.3634,0.5846 0.6278,0.8171 0.2644,0.2329 0.5787,0.4227 0.9279,0.5529 0.3496,0.1303 0.7156,0.1922 1.119,0.1922 h 25.1091 c 0.4034,0 0.7969,-0.0622 1.1464,-0.1922 0.3496,-0.1302 0.6638,-0.32 0.9279,-0.5529 0.2644,-0.2328 0.4799,-0.5095 0.6278,-0.8171 0.1479,-0.3078 0.2182,-0.6543 0.2182,-1.0095 v -5.6001 h 108.351 v 5.6001 c 0,0.3552 0.0977,0.7017 0.2456,1.0095 0.1478,0.3079 0.3634,0.5846 0.6278,0.8171 0.2644,0.2329 0.5786,0.4227 0.9279,0.5529 0.3495,0.1303 0.7156,0.1922 1.119,0.1922 h 25.1091 c 0.4033,0 0.7968,-0.0622 1.1464,-0.1922 0.3495,-0.1302 0.6638,-0.32 0.9278,-0.5529 0.2644,-0.2328 0.48,-0.5095 0.6279,-0.8171 0.1478,-0.3078 0.2182,-0.6543 0.2182,-1.0095 v -5.6001 h 46.8338 c 0.1713,0 0.3004,-0.1134 0.3004,-0.2645 z"
     style="fill:none;stroke:#00ff00;stroke-width:0.21600001;stroke-linecap:butt;stroke-linejoin:miter;stroke-dasharray:none"
     id="path4618"
     inkscape:connector-curvature="0" />
  <path
     d="m 29.9888,197.128 h 215.6478 c 8.2325,-0.002 14.9069,3.5301 14.9069,7.8856 l -0.002,125.9136 c 0.002,4.3546 -6.6728,7.8864 -14.9037,7.8864 l -215.6494,8e-4 c -8.2277,-8e-4 -14.9022,-3.5326 -14.9022,-7.888 L 15.0835,205.0153 c 0.0031,-4.3572 6.6776,-7.8889 14.9085,-7.8889 z"
     style="fill:none;stroke:#ff0000;stroke-width:0.21600001;stroke-linecap:butt;stroke-linejoin:round;stroke-dasharray:none"
     id="path4620"
     inkscape:connector-curvature="0" />
  <text
     x="362.1564"
     y="454.87561"
     id="text4626">
    <tspan
       font-size="27.0000"
       id="tspan4624"
       style="font-size:27px;font-family:Algerian;fill:#000000">watechPARK</tspan>
  </text>
  <rect
     style="fill:none;stroke:#ff0000;stroke-width:0.80000001;stroke-miterlimit:4;stroke-dasharray:none;stroke-opacity:1"
     id="rect6468"
     width="208.27586"
     height="151.03448"
     x="8.3448277"
     y="9.7881575" />
  <rect
     style="fill:none;stroke:#ff0000;stroke-width:0.80000001;stroke-miterlimit:4;stroke-dasharray:none;stroke-opacity:1"
     id="rect6470"
     width="273.1524"
     height="128.7981"
     x="31.525299"
     y="371.10251" />
  <rect
     style="fill:none;stroke:#ff0000;stroke-width:0.80000001;stroke-miterlimit:4;stroke-dasharray:none;stroke-opacity:1"
     id="rect6487"
     width="208.54488"
     height="134.96005"
     x="347.3172"
     y="375.44879" />
  <circle
     style="fill:none;stroke:#ff0000;stroke-width:0.80000001;stroke-miterlimit:4;stroke-dasharray:none;stroke-opacity:1"
     id="path6489"
     cx="146.55173"
     cy="52.788158"
     r="15.862" />
  <rect
     style="fill:none;stroke:#ff0000;stroke-width:0.80000001;stroke-miterlimit:4;stroke-dasharray:none;stroke-opacity:1"
     id="rect6506"
     width="68.620689"
     height="34.482758"
     x="417.58621"
     y="393.16748" />
</svg>
